<?xml version="1.0" encoding="iso-8859-1"?>
<!-- Generator: Adobe Illustrator 19.0.0, SVG Export Plug-In . SVG Version: 6.00 Build 0)  -->
<svg version="1.1" id="Capa_1" xmlns="http://www.w3.org/2000/svg" xmlns:xlink="http://www.w3.org/1999/xlink" x="0px" y="0px"
	 viewBox="0 0 512 512" style="enable-background:new 0 0 512 512;" xml:space="preserve">
<path style="fill:#884D00;" d="M476.476,300.433c0,8.979-3.636,17.1-9.515,22.979c-5.889,5.879-14.01,9.515-22.979,9.515H68.018
	c-17.939,0-32.494-14.545-32.494-32.494c0-4.808,1.04-9.363,2.909-13.464c1.626-3.566,3.869-6.777,6.606-9.515
	c5.889-5.879,14.01-9.515,22.979-9.515h375.965c13.141,0,24.464,7.798,29.585,19.03C475.436,291.07,476.476,295.625,476.476,300.433
	z"/>
<path style="fill:#AA6100;" d="M473.567,286.969c-1.626,3.555-3.879,6.777-6.606,9.505c-5.889,5.879-14.01,9.515-22.979,9.515
	H68.018c-13.131,0-24.454-7.798-29.585-19.019c1.626-3.566,3.869-6.777,6.606-9.515c5.889-5.879,14.01-9.515,22.979-9.515h375.965
	C457.123,267.939,468.446,275.737,473.567,286.969z"/>
<path style="fill:#FFA733;" d="M504.425,359.158c0,41.867-19.383,72.977-50.715,93.612c-31.342,20.646-74.633,30.817-122.45,30.817
	H180.74c-95.633,0-173.165-40.695-173.165-124.429c0-4.666,1.162-9.091,3.262-13.07c1.778-3.394,4.232-6.454,7.212-9.06
	c6.464-5.666,15.414-9.171,25.282-9.171h425.337c14.414,0,26.837,7.474,32.494,18.232
	C503.263,350.067,504.425,354.491,504.425,359.158z"/>
<path style="fill:#FFB655;" d="M501.162,346.088c-6.747,27.878-23.656,49.594-47.453,65.27
	c-31.342,20.646-74.633,30.817-122.45,30.817H180.74c-84.138,0-154.257-31.494-169.902-96.087c1.778-3.394,4.232-6.454,7.212-9.06
	c6.464-5.666,15.414-9.171,25.282-9.171h425.337C483.082,327.856,495.506,335.33,501.162,346.088z"/>
<path style="fill:#EEBF00;" d="M394.173,254.303l-84.057,84.057c-2.111,2.101-4.363,3.959-6.747,5.565
	c-17.797,12.05-42.18,10.202-57.947-5.565l-84.057-84.057L394.173,254.303L394.173,254.303z"/>
<path style="fill:#FFD422;" d="M394.173,254.303l-84.057,84.057c-2.111,2.101-4.363,3.959-6.747,5.565
	c-6.414-2.182-12.434-5.828-17.545-10.949l-78.674-78.674H394.173z"/>
<path style="fill:#6DC82A;" d="M494.991,266.03c0,4.404-0.727,8.909-2.303,13.303c-6.171,17.222-22.696,23.908-35.574,14.393
	l-15.444-11.404c-10.777-7.969-24.524-4.707-32.322,7.676l-0.657,1.04c-7.485,11.899-20.535,15.434-31.191,8.464l-34.584-22.615
	c-7.979-5.212-17.545-4.646-25.1,1.505L290.1,300.938c-7.959,6.474-18.1,6.747-26.272,0.697l-31.615-23.433
	c-8.08-5.99-18.1-5.798-26.029,0.505l-28.787,22.858c-7.727,6.131-17.444,6.485-25.433,0.939l-37.271-25.898
	c-7.333-5.091-16.171-5.232-23.605-0.374l-34.766,22.736c-23.151,2.98-34.413-14.02-34.413-14.02
	c-5.545-9.636-6.101-21.06-3.101-30.645c3.566-11.454,12.202-20.282,23.433-20.282h427.529c11.01,0,19.807,8.697,23.423,20.232
	C494.364,257.95,494.991,261.939,494.991,266.03z"/>
<path style="fill:#7ED63E;" d="M493.193,254.253c-0.152,0.505-0.323,1-0.505,1.505c-6.171,17.232-22.696,23.918-35.574,14.403
	l-15.444-11.414c-10.777-7.959-24.524-4.697-32.322,7.676l-0.657,1.05c-7.485,11.899-20.535,15.434-31.191,8.464l-34.584-22.615
	c-7.979-5.222-17.545-4.646-25.1,1.505L290.1,277.373c-7.959,6.475-18.1,6.737-26.272,0.687l-31.615-23.433
	c-8.08-5.99-18.1-5.788-26.029,0.505l-28.787,22.868c-7.727,6.121-17.444,6.485-25.433,0.939l-37.271-25.898
	c-7.333-5.101-16.171-5.242-23.605-0.374l-34.766,22.726c-23.151,2.99-34.413-14.02-34.413-14.02
	c-1.303-2.273-2.333-4.646-3.101-7.07c3.566-11.454,12.202-20.282,23.433-20.282h427.529
	C480.779,234.021,489.577,242.718,493.193,254.253z"/>
<path style="fill:#FF3501;" d="M486.365,213.234c0.071,3.363-0.374,6.606-1.242,9.666c-3.909,13.616-16.454,23.575-31.322,23.575
	c-58.382,0-213.88-1.313-237.334-0.535c-0.525,0.02-1.05,0.04-1.566,0.051c-29.615,1.121-36.362,5.868-36.362,21.656v57.765
	c0,2.97-1.202,5.666-3.151,7.616c-1.949,1.949-4.636,3.151-7.606,3.151c-5.949,0-10.767,4.818-10.767,10.767v25.161
	c0,2.555-0.303,5.03-0.889,7.414c-3.323,13.757-15.737,23.969-30.645,23.969h-0.798c-16.949,0-30.665-13.767-30.615-30.716
	l0.141-45.544c0.01-3.495,1.434-6.666,3.727-8.949c2.303-2.293,5.464-3.707,8.969-3.707c7.01,0,12.696-5.687,12.696-12.696v-34.231
	c0-11.697-9.474-21.171-21.171-21.171H58.816c-17.828,0-32.827-14.07-33.191-31.898c-0.364-18.292,14.363-33.241,32.574-33.241
	h394.954C470.991,181.336,486.011,195.407,486.365,213.234z"/>
<path style="fill:#FF5023;" d="M486.365,213.234c0.071,3.363-0.374,6.606-1.242,9.666c-61.806-0.061-209.487-1.283-232.294-0.535
	c-30.948,1.02-37.928,5.656-37.928,21.716v1.909c-29.615,1.121-36.362,5.868-36.362,21.656v57.765c0,2.97-1.202,5.666-3.151,7.616
	c-1.949,1.949-4.636,3.151-7.606,3.151c-5.949,0-10.767,4.818-10.767,10.767v25.161c0,2.555-0.303,5.03-0.889,7.414
	c-14.605-2.353-25.746-15.05-25.696-30.322l0.141-45.534c0.01-3.505,1.434-6.666,3.727-8.949c2.303-2.293,5.464-3.707,8.969-3.707
	c7.01,0,12.696-5.687,12.696-12.696v-34.231c0-11.697-9.474-21.171-21.171-21.171H95.178c-17.828,0-32.827-14.07-33.191-31.898
	c-0.071-3.364,0.374-6.606,1.252-9.676h389.914C470.991,181.336,486.011,195.407,486.365,213.234z"/>
<path style="fill:#EEBF00;" d="M300.029,148.227l-72.068,72.098c-7.222,7.222-15.737,12.363-24.807,15.403
	c-22.363,7.555-48.059,2.414-65.856-15.403l-72.098-72.098H300.029z"/>
<path style="fill:#FFD422;" d="M300.029,148.227l-72.068,72.098c-7.222,7.222-15.737,12.363-24.807,15.403
	c-9.06-3.04-17.575-8.182-24.787-15.403l-72.098-72.098H300.029z"/>
<path style="fill:#FFA733;" d="M504.425,158.368c0,0.535-0.02,1.061-0.05,1.586c-0.394,6.778-3.303,12.888-7.808,17.393
	c-4.858,4.858-11.565,7.858-18.979,7.858H34.413c-14.818,0-26.837-12.02-26.837-26.837c0-32.16,14.909-56.372,37.423-74.583
	C63.27,68.997,86.562,58.16,110.945,50.21C179.165,27.999,256,28.413,256,28.413S504.425,27.07,504.425,158.368z"/>
<path style="fill:#FFB655;" d="M504.425,158.368c0,0.535-0.02,1.061-0.05,1.586H88.956c-14.818,0-26.837-12.02-26.837-26.837
	c0-32.16,14.909-56.372,37.423-74.583c3.616-2.929,7.424-5.697,11.404-8.323C179.165,27.999,256,28.413,256,28.413
	S504.425,27.07,504.425,158.368z"/>
<g>
	<path style="fill:#FFF5CC;" d="M389.528,75.363c4.308,4.559,4.104,11.747-0.455,16.055c-4.559,4.308-11.747,4.104-16.055-0.455
		c-4.308-4.558-12.237-20.354-7.677-24.662C369.901,61.994,385.22,70.803,389.528,75.363z"/>
	<path style="fill:#FFF5CC;" d="M329.328,131.491c2.248,5.855-0.676,12.425-6.531,14.673s-12.425-0.676-14.673-6.531
		s-3.57-23.479,2.286-25.727C316.265,111.658,327.08,125.636,329.328,131.491z"/>
	<path style="fill:#FFF5CC;" d="M267.357,84.78c0,6.272-5.085,11.357-11.357,11.357s-11.357-5.085-11.357-11.357
		c0-6.272,5.085-23.198,11.357-23.198S267.357,78.507,267.357,84.78z"/>
	<path style="fill:#FFF5CC;" d="M204.912,138.608c-1.569,6.072-7.763,9.725-13.836,8.156c-6.072-1.569-9.725-7.763-8.156-13.836
		c1.569-6.072,10.724-21.189,16.797-19.62C205.79,114.875,206.48,132.535,204.912,138.608z"/>
	<path style="fill:#FFF5CC;" d="M142.432,89.138c-2.734,5.644-9.527,8.004-15.172,5.269c-5.644-2.734-8.004-9.527-5.269-15.172
		c2.734-5.644,14.689-18.661,20.335-15.926C147.97,66.044,145.167,83.494,142.432,89.138z"/>
</g>
<path d="M502.707,381.47c-4.04-1.03-8.171,1.414-9.212,5.464c-14.242,55.776-74.896,89.077-162.246,89.077H180.74
	c-43.382,0-81.421-8.485-110.026-24.544c-3.646-2.04-8.262-0.747-10.313,2.899c-2.04,3.646-0.747,8.262,2.899,10.313
	c30.857,17.323,71.472,26.484,117.44,26.484H331.25c76.221,0,158.066-26.633,176.932-100.481
	C509.212,386.631,506.768,382.51,502.707,381.47z"/>
<path d="M285.514,294.904c0.009-0.008,0.007-0.005,0.008-0.006C285.519,294.9,285.516,294.902,285.514,294.904z"/>
<path d="M478.195,321.247c3.498-5.723,5.606-12.384,5.836-19.501c22.244-12.847,25.184-50.693,4.717-68.048
	c7.171-12.617,7.265-29.062-1.828-42.2c14.454-4.081,25.08-17.393,25.08-33.13c0-86.766-99.135-120.557-185.558-132.288
	c-4.141-0.566-7.969,2.333-8.535,6.485c-0.556,4.141,2.343,7.959,6.495,8.525c76.536,10.394,172.448,39.708,172.448,117.278
	c0,10.616-8.646,19.262-19.262,19.262c-406.63,0-36.534,0-443.174,0c-10.616,0-19.262-8.646-19.262-19.262
	c0-49.725,38.645-85.36,114.864-105.915c40.498-10.923,90.751-16.366,126.278-16.464c1.656,0,16.737,0.051,38.291,1.848
	c4.192,0.343,7.828-2.757,8.182-6.919c0.343-4.172-2.757-7.838-6.919-8.181c-13.095-1.09-26.944-1.834-40.14-1.899
	c-66.052,0-163.687,15.17-215.476,57.058C13.535,99.491,0,126.571,0,158.368c0,15.676,10.545,28.938,24.908,33.079
	c-8.393,12.368-9.289,28.795-1.586,42.13c-14.125,11.999-18.731,36.448-7.979,55.149c1.97,3.202,6.798,8.192,12.606,11.757
	c0.017,7.597,2.156,14.701,5.853,20.757C14.483,325.149,0,340.663,0,359.158c0,35.029,12.565,64.27,37.332,86.916
	c1.444,1.323,3.283,1.98,5.101,1.98c6.884,0,10.207-8.51,5.121-13.161c-21.494-19.656-32.403-45.14-32.403-75.734
	c0-13.08,12.646-23.726,28.181-23.726h43.271l-0.111,37.312c-0.063,21.238,17.101,38.322,38.19,38.322h0.798
	c21.565,0,39.11-17.474,39.11-38.958v-25.161c0-1.768,1.434-3.192,3.192-3.192c6.414,0,12.07-3.313,15.343-8.323h47.301
	c4.485,3.313,17.568,23.888,45.988,23.888c28.353,0,41.53-20.588,45.998-23.888h146.257c15.383,0,28.029,10.535,28.181,23.494
	c0.04,4.151,3.424,7.485,7.565,7.485h0.091c4.182-0.04,7.535-3.475,7.495-7.656C511.783,340.477,497.319,325.143,478.195,321.247z
	 M266.202,192.78H466.78c22.056,13.599,11.456,45.584-12.979,45.584c-162.792,0-12.686-0.42-237.598,0
	C231.391,230.289,236.114,221.837,266.202,192.78z M28.312,280.888c-7.018-12.53-3.414-28.788,4.909-35.827
	c7.03,5.606,15.949,8.99,25.595,8.99H98.43c7.202,0,13.111,5.626,13.565,12.717c-3.05-1.091-6.212-1.636-9.383-1.636
	c-11.413,0-16.081,5.029-48.907,26.494C42.555,292.528,33.269,287.545,28.312,280.888z M87.885,320.28H52.997
	c-4.492-3.407-7.803-8.291-9.18-13.929c4.044,0.635,13.218,1.193,16.656-1.05l34.766-22.726c8.926-5.845,16.103,1.142,16.787,1.404
	v17.898c0,2.828-2.293,5.121-5.121,5.121C98.198,306.998,90.744,312.533,87.885,320.28z M170.963,296.837c0,14.874,0,3.16,0,28.575
	c0,1.758-1.424,3.192-3.182,3.192c-10.148,0-18.343,8.276-18.343,18.343v25.161c0,21.599-26.621,31.521-41.079,17.03
	c-7.903-7.94-6.708-18.03-6.716-16.797c0.034-10.996,0.074-23.721,0.14-45.089c0.01-2.808,2.303-5.101,5.121-5.101
	c11.095,0,20.272-9.014,20.272-20.272c0-14.923,0-19.302,0-34.231c0-11.515-6.808-21.474-16.616-26.049
	c-9.554-4.502-15.217-1.968-51.745-2.697c-25.418,0-35.287-32.663-13.969-46.119h54.19l32.898,32.898
	c12.728,12.738,29.405,20.094,47.273,20.926C167.979,255.665,171.625,268.203,170.963,296.837z M142.651,214.971L120.46,192.78
	h124.328l-22.181,22.191C200.451,237.107,164.701,237.041,142.651,214.971z M186.114,320.28v-15.969l7.353-5.838l21.807,21.807
	H186.114z M300.746,335.431c-15.002,12.46-37.273,11.622-51.321-2.424c-10.926-10.927-33.102-33.102-44.018-44.018
	c2.694-1.34,11.245-12.898,22.302-4.707l31.615,23.433c10.772,8.008,24.769,7.874,35.554-0.899l27.716-22.545
	c5.03-4.091,10.929-4.475,16.181-1.04l9.262,6.05C295.797,340.418,302.189,334.243,300.746,335.431z M459.011,320.28H337.562
	l22.878-22.878l9.444,6.171c1.727,0.783,11.051,9.489,25.009,6.424c13.93-3.043,20.588-15.659,20.868-15.969
	c5.078-8.065,13.755-11.276,21.413-5.616c12.475,8.239,18.54,16.596,31.181,17.222C467.092,311.579,463.691,316.732,459.011,320.28z
	 M461.618,287.635c-16.118-11.903-15.481-11.463-16.393-12.09c-13.924-9.509-32.114-5.682-42.291,10.414
	c-0.261,0.303-4.052,7.661-11.262,9.232c-6.673,1.47-7.409-0.301-44.614-24.635c-10.808-7.07-23.837-6.323-34.019,1.96
	c-15.833,12.878-27.568,22.42-27.275,22.185c-0.221,0.18-0.144,0.117-0.162,0.131c0.064-0.053,0.026-0.021-0.038,0.031
	c-0.014,0.011-0.03,0.024-0.045,0.037c-0.007,0.006-0.013,0.011-0.02,0.016c0.005-0.004,0.01-0.008,0.015-0.012
	c-0.011,0.009-0.023,0.019-0.035,0.029c-0.056,0.045-0.142,0.116-0.156,0.126c-5.262,4.283-11.616,4.464-16.979,0.485
	c-31.574-23.403-36.319-29.187-48.614-29.272c-10.404-0.074-16.961,5.035-25.1,11.939l-8.515,6.757v-17.323
	c0-20.052,4.304-13.595,267.686-13.595c9.262,0,18.03-3.111,25.13-8.828c7.401,6.394,10.906,19.653,6.636,31.544
	C481.481,288.156,471.003,294.557,461.618,287.635z"/>
<path d="M360.139,60.795c-4.498,4.248-4.952,11.135-1.351,20.469c4.265,11.058,10.702,20.831,22.5,20.831
	c16.431,0,25.184-19.832,13.746-31.935c0-0.001,0-0.001,0-0.001C390.733,65.606,370.303,51.187,360.139,60.795z M381.167,86.942
	c-0.585-0.017-1.705-0.192-2.641-1.183c-2.257-2.39-5.198-8.281-6.42-12.301c3.943,1.448,9.659,4.716,11.918,7.106
	C386.326,83.004,384.533,87.023,381.167,86.942z"/>
<path d="M301.053,142.35c1.813,4.721,5.355,8.453,9.975,10.51c15.272,6.795,31.439-8.295,25.372-24.085v0.001
	c-2.245-5.847-15.643-26.956-28.706-21.942C294.634,111.85,298.807,136.503,301.053,142.35z M313.94,123.099
	c3.095,2.84,7.136,8.038,8.316,11.108v0.001c0.747,1.946-0.223,4.134-2.176,4.885c-1.957,0.75-4.138-0.233-4.885-2.174
	C314.017,133.849,313.541,127.282,313.94,123.099z"/>
<path d="M237.067,84.78c0,10.44,8.493,18.933,18.933,18.933s18.933-8.493,18.933-18.933c0-6.263-4.942-30.774-18.933-30.774
	S237.067,78.515,237.067,84.78z M256,88.561c-2.085,0-3.782-1.697-3.782-3.782c0-3.288,1.91-9.59,3.782-13.351
	c1.873,3.761,3.782,10.063,3.782,13.351C259.782,86.864,258.085,88.561,256,88.561z"/>
<path d="M183.56,115.717c-6.891,9.225-11.825,19.703-5.954,29.664c8.553,14.512,30.447,11.353,34.64-4.881
	c1.567-6.065,2.912-31.029-10.635-34.53C195.621,104.426,189.548,107.703,183.56,115.717z M197.577,136.713
	c-0.062,0.101-0.272,1.447-1.741,2.313c-2.905,1.715-6.417-0.967-5.581-4.204c0.822-3.183,4.247-8.808,7-11.98
	C198.127,126.951,198.399,133.529,197.577,136.713z"/>
<path d="M115.173,75.934c-6.092,12.577,3.145,27.185,17.007,27.185c7.034,0,13.802-3.934,17.069-10.677
	c3.301-6.812,8.363-30.141-3.621-35.947C133.89,50.805,118.686,68.681,115.173,75.934z M135.615,85.835
	c-0.91,1.877-3.176,2.663-5.051,1.755c-1.877-0.909-2.664-3.177-1.755-5.053c1.433-2.958,5.9-7.798,9.224-10.366
	C138.076,76.372,137.048,82.877,135.615,85.835z"/>
<g>
</g>
<g>
</g>
<g>
</g>
<g>
</g>
<g>
</g>
<g>
</g>
<g>
</g>
<g>
</g>
<g>
</g>
<g>
</g>
<g>
</g>
<g>
</g>
<g>
</g>
<g>
</g>
<g>
</g>
</svg>
